 <svg  version="1.0" xmlns="http://www.w3.org/2000/svg"  width="48.000000pt" height="48.000000pt" viewBox="0 0 48.000000 48.000000"  preserveAspectRatio="xMidYMid meet">  <g transform="translate(0.000000,48.000000) scale(0.100000,-0.100000)" fill="#7d0846" stroke="none"> <path d="M80 251 c0 -172 2 -200 16 -205 30 -12 279 -7 292 6 15 15 16 92 2 83 -5 -3 -10 -19 -10 -36 l0 -29 -140 0 -140 0 0 180 0 180 140 0 140 0 0 -86 c0 -54 4 -83 10 -79 6 3 10 46 10 96 l0 89 -160 0 -160 0 0 -199z"/> <path d="M200 392 c0 -4 -16 -6 -35 -4 -35 4 -35 4 -35 -37 0 -40 0 -41 36 -41 33 0 36 2 30 23 -3 14 1 33 10 45 8 13 11 22 5 22 -6 0 -11 -4 -11 -8z m-16 -27 c-5 -12 -10 -13 -20 -4 -17 14 -19 -2 -2 -19 9 -9 8 -12 -5 -12 -11 0 -17 8 -17 25 0 20 5 25 25 25 18 0 23 -4 19 -15z"/> <path d="M230 360 c0 -5 25 -10 55 -10 30 0 55 5 55 10 0 6 -25 10 -55 10 -30 0 -55 -4 -55 -10z"/> <path d="M200 282 c0 -4 -16 -6 -35 -4 -35 4 -35 4 -35 -37 0 -40 0 -41 36 -41 33 0 36 2 30 23 -3 14 1 33 10 45 8 13 11 22 5 22 -6 0 -11 -4 -11 -8z m-16 -27 c-5 -12 -10 -13 -20 -4 -17 14 -19 -2 -2 -19 9 -9 8 -12 -5 -12 -11 0 -17 8 -17 25 0 20 5 25 25 25 18 0 23 -4 19 -15z"/> <path d="M346 210 c-71 -73 -81 -103 -36 -108 19 -2 40 13 94 66 61 62 67 72 57 91 -19 35 -44 24 -115 -49z m95 37 c-1 -12 -15 -9 -19 4 -3 6 1 10 8 8 6 -3 11 -8 11 -12z m-27 -25 c3 -5 -14 -28 -38 -51 -57 -55 -75 -37 -20 20 39 40 49 45 58 31z"/> <path d="M230 250 c0 -5 25 -10 55 -10 30 0 55 5 55 10 0 6 -25 10 -55 10 -30 0 -55 -4 -55 -10z"/> <path d="M130 135 c0 -33 2 -35 35 -35 33 0 35 2 35 35 0 33 -2 35 -35 35 -33 0 -35 -2 -35 -35z m60 0 c0 -20 -5 -25 -25 -25 -20 0 -25 5 -25 25 0 20 5 25 25 25 20 0 25 -5 25 -25z"/> <path d="M230 140 c0 -5 9 -10 20 -10 11 0 20 5 20 10 0 6 -9 10 -20 10 -11 0 -20 -4 -20 -10z"/> </g> </svg> 