<?xml version="1.0" standalone="no"?>
<!DOCTYPE svg PUBLIC "-//W3C//DTD SVG 20010904//EN"
 "http://www.w3.org/TR/2001/REC-SVG-20010904/DTD/svg10.dtd">
<svg version="1.0" xmlns="http://www.w3.org/2000/svg"
 width="48.000000pt" height="48.000000pt" viewBox="0 0 48.000000 48.000000"
 preserveAspectRatio="xMidYMid meet">
<metadata>
Created by potrace 1.10, written by Peter Selinger 2001-2011
</metadata>
<g transform="translate(0.000000,48.000000) scale(0.050000,-0.050000)"
fill="#9c0202" stroke="none">
<path d="M410 833 c-56 -86 25 -178 107 -121 51 36 56 93 12 137 -45 44 -83
39 -119 -16z"/>
<path d="M165 767 c-38 -15 -31 -122 9 -144 49 -27 106 8 106 64 0 73 -49 107
-115 80z"/>
<path d="M680 750 c-30 -36 -12 -121 30 -137 73 -28 130 51 90 126 -25 48 -85
54 -120 11z"/>
<path d="M357 644 c-30 -21 -37 -52 -37 -157 l0 -132 49 33 c69 45 95 41 161
-28 32 -33 65 -60 74 -60 23 0 20 335 -4 350 -39 24 -206 20 -243 -6z"/>
<path d="M87 565 c-15 -15 -27 -68 -27 -116 l0 -89 110 0 110 0 0 115 0 115
-83 1 c-45 1 -94 -11 -110 -26z"/>
<path d="M660 475 c0 -109 2 -114 39 -91 28 18 33 31 18 49 -31 38 -5 62 83
77 132 22 95 76 -54 78 l-86 2 0 -115z"/>
<path d="M795 486 c-57 -9 -71 -34 -33 -57 13 -8 -17 -48 -75 -100 l-97 -86
-80 78 -80 78 -156 -131 c-145 -123 -173 -165 -120 -183 12 -4 79 43 149 103
l127 110 83 -81 83 -81 87 76 c158 138 154 136 184 110 24 -20 73 91 73 167 0
12 -54 10 -145 -3z"/>
</g>
</svg>
