 <svg  version="1.0" xmlns="http://www.w3.org/2000/svg"  width="48.000000pt" height="48.000000pt" viewBox="0 0 48.000000 48.000000"  preserveAspectRatio="xMidYMid meet">  <g transform="translate(0.000000,48.000000) scale(0.050000,-0.050000)" fill="#2f2da9" stroke="none"> <path d="M424 838 c-62 -24 -91 -108 -59 -173 32 -65 95 -89 157 -58 143 72 52 286 -98 231z"/> <path d="M122 752 c-58 -69 20 -186 93 -140 59 38 47 157 -17 164 -28 3 -63 -7 -76 -24z"/> <path d="M701 751 c-57 -68 21 -184 94 -139 71 45 46 168 -35 168 -19 0 -46 -13 -59 -29z"/> <path d="M49 531 c-52 -78 -31 -120 61 -127 77 -5 82 -2 124 85 l44 91 -99 0 c-82 0 -103 -8 -130 -49z"/> <path d="M295 518 c-39 -39 -55 -75 -55 -126 0 -93 32 -93 49 -1 37 198 371 177 371 -24 0 -32 9 -47 25 -41 41 14 19 139 -34 192 -77 77 -279 77 -356 0z"/> <path d="M708 490 c40 -86 45 -89 122 -85 162 10 98 175 -68 175 l-96 0 42 -90z"/> <path d="M360 460 c-121 -121 37 -351 180 -261 22 14 44 1 86 -50 58 -70 114 -91 114 -43 0 15 -27 52 -60 84 -52 49 -58 67 -47 132 23 145 -169 242 -273 138z m211 -49 c56 -85 25 -121 -101 -121 -106 0 -110 2 -110 54 0 115 149 162 211 67z"/> <path d="M427 410 c-17 -46 7 -90 50 -90 48 0 72 55 41 93 -30 36 -76 35 -91 -3z"/> </g> </svg> 