<?xml version="1.0" standalone="no"?>
<!DOCTYPE svg PUBLIC "-//W3C//DTD SVG 20010904//EN"
 "http://www.w3.org/TR/2001/REC-SVG-20010904/DTD/svg10.dtd">
<svg version="1.0" xmlns="http://www.w3.org/2000/svg"
 width="48.000000pt" height="48.000000pt" viewBox="0 0 48.000000 48.000000"
 preserveAspectRatio="xMidYMid meet">
<metadata>
Created by potrace 1.10, written by Peter Selinger 2001-2011
</metadata>
<g transform="translate(0.000000,48.000000) scale(0.100000,-0.100000)"
fill="#5c2eb2" stroke="none">
<path d="M180 453 c0 -13 -52 -33 -82 -33 -17 0 -31 -7 -38 -19 -6 -11 -10
-92 -10 -190 0 -142 3 -172 16 -186 24 -24 312 -18 328 7 13 21 0 36 -16 20
-8 -8 -58 -12 -155 -12 l-143 0 0 180 0 180 30 0 c17 0 30 -4 30 -10 0 -6 37
-10 90 -10 57 0 90 4 90 11 0 6 12 9 28 7 26 -3 27 -5 30 -75 2 -40 7 -73 13
-73 6 0 9 32 7 83 l-3 82 -33 3 c-19 2 -49 12 -68 23 -34 18 -114 27 -114 12z
m107 -24 c43 -16 10 -30 -69 -27 -54 2 -65 5 -56 16 6 7 17 11 25 8 8 -3 11
-1 8 4 -8 13 56 13 92 -1z"/>
<path d="M280 280 l0 -61 25 18 c21 15 25 25 23 58 -3 33 -7 41 -25 43 -22 3
-23 0 -23 -58z"/>
<path d="M210 215 c0 -60 -3 -75 -15 -75 -12 0 -15 13 -15 55 0 48 -2 55 -20
55 -18 0 -20 -7 -20 -54 0 -44 -4 -55 -17 -59 -10 -3 16 -5 57 -6 l75 -1 -3
80 c-3 71 -6 80 -23 80 -17 0 -19 -8 -19 -75z"/>
<path d="M300 210 c-27 -27 -27 -83 1 -111 15 -15 31 -20 59 -18 29 2 45 -2
63 -19 13 -12 26 -22 30 -22 14 0 7 27 -12 44 -14 13 -17 26 -14 60 4 35 1 48
-16 65 -28 28 -84 28 -111 1z m92 -17 c35 -32 13 -93 -34 -93 -49 0 -74 56
-41 92 20 22 51 23 75 1z"/>
</g>
</svg>
