 <svg  version="1.0" xmlns="http://www.w3.org/2000/svg"  width="144.000000pt" height="144.000000pt" viewBox="0 0 144.000000 144.000000"  preserveAspectRatio="xMidYMid meet">  <g transform="translate(0.000000,144.000000) scale(0.100000,-0.100000)" fill="#00a36d" stroke="none"> <path d="M220 1370 c-11 -11 -20 -27 -20 -35 0 -16 -41 -110 -96 -218 -38 -75 -38 -101 2 -111 15 -4 46 -16 70 -27 30 -15 52 -19 74 -14 38 8 75 -18 61 -44 -12 -23 5 -61 27 -61 10 0 31 -13 45 -30 16 -17 37 -30 51 -30 13 0 26 -7 30 -15 3 -8 16 -15 29 -15 14 0 32 -12 45 -30 21 -27 26 -30 63 -24 33 6 44 3 64 -16 29 -28 77 -30 103 -7 10 10 32 17 49 17 19 0 38 9 53 25 13 14 32 25 41 25 10 0 34 14 52 30 19 17 42 30 51 30 47 0 87 60 67 98 -8 15 -6 23 13 41 26 25 53 27 76 6 16 -14 22 -13 66 9 27 14 62 29 77 35 15 6 27 18 27 27 0 9 -27 72 -60 140 -33 68 -60 127 -60 132 0 13 -30 71 -39 77 -5 2 -30 -7 -57 -20 -27 -14 -54 -25 -60 -25 -13 0 -54 -43 -54 -57 0 -40 -76 -46 -145 -12 -32 15 -70 25 -105 26 -30 1 -72 5 -93 9 -37 6 -63 -1 -144 -39 -43 -20 -86 -11 -118 26 -16 18 -52 44 -80 57 -27 13 -58 27 -67 32 -13 6 -23 3 -38 -12z m438 -133 c2 -9 -2 -17 -8 -17 -6 0 -40 -17 -75 -37 -71 -41 -81 -62 -42 -94 35 -29 81 -24 143 17 30 20 57 40 60 45 10 16 30 9 65 -22 19 -17 52 -46 74 -65 127 -111 165 -147 165 -159 0 -15 -27 -45 -40 -45 -5 0 -36 25 -68 55 -61 56 -102 71 -102 36 0 -10 17 -30 39 -45 61 -43 76 -63 61 -81 -19 -23 -33 -19 -94 35 -34 30 -62 47 -71 44 -28 -11 -15 -40 36 -78 42 -31 48 -40 38 -52 -14 -17 -54 -11 -80 12 -35 31 -65 9 -35 -25 9 -10 12 -22 7 -30 -7 -10 -14 -10 -40 3 -31 16 -42 48 -21 61 20 13 10 46 -20 63 -16 9 -30 25 -30 34 0 19 -28 38 -55 38 -9 0 -28 9 -42 20 -14 11 -36 20 -48 20 -12 0 -30 9 -40 20 -22 24 -38 25 -70 4 -23 -15 -26 -14 -55 6 -16 12 -30 27 -30 33 0 7 16 43 35 80 19 38 35 75 35 82 0 26 37 37 69 20 42 -21 59 -19 138 15 74 32 96 34 101 7z m477 -5 c18 -13 68 -129 61 -141 -4 -6 -17 -11 -29 -11 -12 -1 -33 -7 -47 -15 -29 -17 -76 -19 -85 -5 -4 6 -24 22 -46 36 -60 37 -58 39 71 116 48 29 59 32 75 20z"/> <path d="M79 794 c-13 -16 -4 -50 16 -58 8 -3 15 -16 15 -30 0 -13 7 -26 15 -30 10 -3 15 -19 15 -43 1 -30 7 -43 30 -63 17 -13 30 -34 30 -45 0 -25 39 -65 63 -65 32 0 30 28 -2 56 -17 14 -31 34 -31 44 0 10 -7 23 -15 30 -8 7 -15 28 -15 47 0 21 -6 36 -15 39 -9 4 -15 19 -15 35 0 26 4 29 30 29 26 0 30 -4 30 -26 0 -14 11 -45 24 -69 14 -24 22 -52 20 -63 -4 -14 6 -28 35 -51 23 -18 41 -38 41 -45 0 -25 74 -106 96 -106 36 0 38 40 5 75 -16 16 -36 46 -44 65 -8 19 -35 60 -61 90 -44 51 -66 88 -66 111 0 17 18 10 81 -31 43 -28 73 -40 98 -40 29 0 40 -6 56 -30 24 -36 64 -54 102 -46 26 6 31 2 50 -31 12 -21 33 -49 48 -63 23 -22 26 -30 20 -70 -4 -31 -1 -53 9 -70 9 -14 19 -34 25 -45 13 -28 52 -62 76 -67 12 -2 20 -11 20 -23 0 -38 -48 -30 -172 30 -134 64 -149 75 -158 116 -8 33 -29 38 -45 10 -33 -63 7 -104 170 -174 19 -9 57 -25 83 -37 54 -24 68 -25 112 -15 23 5 36 2 54 -14 13 -12 27 -21 31 -21 17 0 72 83 67 101 -6 23 9 34 44 31 39 -3 70 28 85 84 17 66 6 78 -65 68 -49 -6 -54 -9 -73 -49 -17 -34 -28 -43 -65 -54 -85 -26 -124 20 -133 154 -5 75 -7 81 -32 93 -15 7 -36 28 -48 48 -30 48 -62 67 -99 59 -26 -5 -36 0 -74 34 -35 33 -52 41 -81 41 -26 0 -59 13 -107 41 -59 35 -75 41 -106 36 -20 -4 -42 -3 -47 2 -20 15 -115 19 -127 5z m868 -580 c9 -23 -23 -51 -44 -38 -26 16 -27 33 -1 43 33 14 38 13 45 -5z"/> </g> </svg> 