<?xml version="1.0" standalone="no"?>
<!DOCTYPE svg PUBLIC "-//W3C//DTD SVG 20010904//EN"
 "http://www.w3.org/TR/2001/REC-SVG-20010904/DTD/svg10.dtd">
<svg version="1.0" xmlns="http://www.w3.org/2000/svg"
 width="144.000000pt" height="144.000000pt" viewBox="0 0 144.000000 144.000000"
 preserveAspectRatio="xMidYMid meet">
<metadata>
Created by potrace 1.10, written by Peter Selinger 2001-2011
</metadata>
<g transform="translate(0.000000,144.000000) scale(0.100000,-0.100000)"
fill="#000000" stroke="none">
<path d="M607 1422 c-10 -9 -36 -35 -58 -57 -37 -37 -44 -39 -97 -40 -51 0
-58 -3 -68 -25 -7 -15 -9 -54 -7 -96 l5 -72 212 -7 c117 -4 231 -4 254 0 l42
7 2 61 c4 126 -3 137 -85 137 -44 0 -54 4 -88 38 -50 50 -77 72 -86 71 -5 0
-16 -8 -26 -17z m57 -78 c9 -8 16 -26 16 -40 0 -27 15 -32 95 -36 l50 -3 3
-37 c2 -26 -1 -38 -10 -38 -138 -4 -373 1 -380 8 -6 6 -7 24 -3 41 6 30 8 31
65 31 76 0 90 6 90 39 0 48 42 68 74 35z"/>
<path d="M195 1267 l-26 -22 0 -540 0 -540 30 -27 31 -28 279 0 c275 0 280 0
286 21 4 12 2 26 -3 31 -7 7 -105 10 -267 9 -156 0 -265 3 -276 10 -18 9 -19
30 -19 519 0 349 3 511 11 515 5 4 29 8 52 10 23 2 45 4 48 4 4 1 10 8 13 17
11 30 -13 44 -75 44 -46 0 -63 -5 -84 -23z"/>
<path d="M923 1284 c-7 -3 -13 -11 -13 -17 1 -28 22 -42 72 -47 l53 -5 0 -275
0 -275 -51 -11 c-70 -15 -138 -65 -182 -133 -37 -55 -37 -57 -37 -161 l0 -105
38 -57 c68 -101 152 -148 265 -148 50 0 76 6 123 30 74 36 109 70 148 144 27
49 31 66 31 134 0 90 -25 156 -81 212 -43 42 -103 80 -129 80 -12 0 -30 5 -41
10 -18 10 -19 24 -19 295 0 281 0 285 -22 307 -17 17 -36 23 -83 25 -33 1 -66
0 -72 -3z m218 -695 c43 -11 121 -77 144 -122 9 -18 19 -57 22 -88 9 -96 -49
-195 -142 -240 -62 -31 -112 -34 -176 -11 -240 84 -227 399 18 467 48 13 64
13 134 -6z"/>
<path d="M1097 410 c-43 -44 -84 -80 -92 -80 -8 0 -25 14 -37 30 -26 35 -70
39 -76 6 -5 -25 85 -116 114 -116 29 0 209 183 209 213 0 15 -7 23 -21 25 -15
2 -42 -20 -97 -78z"/>
<path d="M438 1045 c-51 -28 -45 -105 10 -126 93 -35 159 81 71 126 -34 18
-47 18 -81 0z"/>
<path d="M680 980 l0 -30 136 0 135 0 -3 28 -3 27 -132 3 -133 3 0 -31z"/>
<path d="M696 892 c-12 -3 -16 -11 -14 -30 l3 -27 130 0 130 0 3 28 c3 20 -1
27 -15 28 -69 3 -222 3 -237 1z"/>
<path d="M374 842 c-12 -10 -29 -33 -38 -51 -15 -28 -16 -35 -3 -54 13 -21 21
-22 147 -21 123 0 135 2 147 21 17 25 2 66 -35 101 -22 19 -36 22 -111 22 -67
-1 -91 -5 -107 -18z"/>
<path d="M474 633 c-13 -44 -21 -48 -72 -45 -78 5 -82 -4 -82 -163 0 -117 2
-134 17 -139 10 -4 88 -9 174 -12 125 -3 159 -1 168 10 15 18 23 263 10 289
-9 16 -19 19 -66 15 -51 -5 -55 -3 -64 21 -6 14 -16 29 -22 33 -22 14 -57 8
-63 -9z m150 -109 c13 -5 16 -23 16 -95 0 -84 -1 -89 -22 -93 -54 -11 -190
-15 -213 -6 -24 9 -25 13 -25 98 0 49 3 92 7 95 8 9 216 9 237 1z"/>
<path d="M433 478 c-4 -7 -9 -36 -10 -64 -2 -50 -1 -52 29 -58 16 -3 34 -3 39
0 12 7 11 51 -1 59 -6 4 -5 13 2 25 9 14 9 22 -1 34 -16 19 -47 21 -58 4z"/>
<path d="M535 460 c-3 -5 0 -13 9 -16 21 -8 61 -1 61 11 0 14 -62 19 -70 5z"/>
</g>
</svg>
