 <svg  version="1.0" xmlns="http://www.w3.org/2000/svg"  width="48.000000pt" height="48.000000pt" viewBox="0 0 48.000000 48.000000"  preserveAspectRatio="xMidYMid meet">  <g transform="translate(0.000000,48.000000) scale(0.050000,-0.050000)" fill="#b0a421" stroke="none"> <path d="M620 884 c0 -47 -75 -73 -115 -40 -45 37 -135 -60 -95 -104 42 -47 37 -110 -11 -143 -57 -37 -22 -147 40 -127 53 17 121 -30 121 -85 0 -61 118 -67 134 -7 12 45 79 67 127 42 24 -14 43 -9 66 17 37 40 44 103 13 103 -37 0 -21 98 19 119 58 31 17 149 -46 134 -52 -13 -106 23 -116 77 -11 58 -137 70 -137 14z m135 -180 c49 -62 24 -158 -48 -185 -99 -38 -186 43 -159 149 21 86 150 109 207 36z"/> <path d="M32 768 c-7 -17 -12 -89 -12 -158 l0 -128 85 -6 c80 -6 85 -10 85 -66 0 -47 10 -61 45 -66 45 -7 53 9 46 81 -2 19 10 41 28 47 21 9 27 27 18 61 -8 32 0 62 25 89 30 33 32 47 12 79 -13 21 -24 52 -24 69 0 45 -290 44 -308 -2z"/> <path d="M20 289 c0 -203 7 -209 231 -209 l189 0 0 60 c0 53 7 60 58 60 65 0 96 49 60 93 -13 15 -44 27 -70 27 -38 0 -48 11 -48 50 0 68 -94 73 -104 6 -16 -115 -196 -108 -196 7 0 28 -15 37 -60 37 l-60 0 0 -131z"/> </g> </svg> 