<?xml version="1.0" standalone="no"?>
<!DOCTYPE svg PUBLIC "-//W3C//DTD SVG 20010904//EN"
 "http://www.w3.org/TR/2001/REC-SVG-20010904/DTD/svg10.dtd">
<svg version="1.0" xmlns="http://www.w3.org/2000/svg"
 width="48.000000pt" height="48.000000pt" viewBox="0 0 48.000000 48.000000"
 preserveAspectRatio="xMidYMid meet">
<metadata>
Created by potrace 1.10, written by Peter Selinger 2001-2011
</metadata>
<g transform="translate(0.000000,48.000000) scale(0.050000,-0.050000)"
fill="#19a998" stroke="none">
<path d="M201 871 c-42 -50 -17 -101 49 -101 41 0 62 11 66 36 8 41 -29 94
-66 94 -14 0 -36 -13 -49 -29z"/>
<path d="M360 821 c0 -43 9 -84 20 -91 12 -7 20 16 20 59 l0 71 220 0 220 0 0
-161 0 -161 -240 6 c-182 5 -240 0 -240 -19 0 -19 65 -25 260 -25 l260 0 0
200 0 200 -260 0 -260 0 0 -79z"/>
<path d="M590 780 c-31 -51 -205 -113 -242 -86 -114 84 -255 15 -257 -125 -1
-108 35 -118 51 -15 10 64 13 56 15 -49 3 -111 8 -125 43 -125 24 0 41 14 42
35 1 19 11 -1 21 -45 10 -44 15 -96 10 -115 -6 -21 2 -35 19 -35 22 0 28 42
28 201 0 197 1 200 42 178 44 -24 45 -23 187 106 34 30 68 55 76 55 8 0 15 9
15 20 0 26 -34 26 -50 0z"/>
<path d="M431 348 c-18 -18 -28 -46 -22 -62 6 -16 11 -33 11 -38 0 -25 103 -3
114 25 27 71 -50 128 -103 75z"/>
<path d="M712 354 c-53 -38 -26 -114 40 -114 56 0 84 50 55 97 -28 43 -53 48
-95 17z"/>
<path d="M142 324 c-26 -50 3 -89 60 -81 83 12 68 116 -16 117 -14 0 -33 -16
-44 -36z"/>
<path d="M111 189 c-17 -18 -31 -54 -31 -81 0 -64 224 -67 236 -4 16 86 -139
150 -205 85z"/>
<path d="M395 198 c-95 -55 -43 -138 85 -138 114 0 120 2 120 49 0 86 -121
139 -205 89z"/>
<path d="M675 198 c-21 -12 -35 -44 -35 -80 l0 -60 115 6 c130 7 158 43 86
115 -44 44 -110 52 -166 19z"/>
</g>
</svg>
