 <svg  version="1.0" xmlns="http://www.w3.org/2000/svg"  width="300.000000pt" height="309.000000pt" viewBox="0 0 300.000000 309.000000"  preserveAspectRatio="xMidYMid meet">  <g transform="translate(0.000000,309.000000) scale(0.100000,-0.100000)" fill="#061ab7" stroke="none"> <path d="M1462 3013 c-18 -4 -21 -9 -17 -31 l5 -27 -11 28 c-7 19 -18 27 -35 27 -30 0 -30 -6 -1 -31 19 -17 17 -16 -16 2 -33 19 -47 21 -103 15 -36 -4 -86 -15 -112 -26 l-47 -19 100 0 c55 0 109 4 120 9 19 8 19 9 1 9 -11 1 -17 3 -14 6 3 4 18 3 33 -1 15 -4 22 -10 17 -13 -6 -4 10 -7 35 -8 39 0 50 4 71 28 13 16 28 29 34 29 6 0 -1 -9 -16 -21 -33 -26 -33 -38 -1 -34 14 1 43 -4 63 -11 20 -7 53 -14 72 -15 l35 -1 -42 -8 c-23 -5 -51 -14 -62 -19 -23 -13 -34 -14 -28 -3 3 4 -32 7 -78 7 -46 0 -81 -3 -79 -7 8 -12 -2 -10 -42 10 l-37 17 29 6 c16 4 -34 7 -112 8 -77 0 -143 -2 -147 -5 -3 -4 -24 -8 -47 -9 -41 -3 -74 -21 -65 -35 3 -4 -11 -11 -29 -14 -28 -5 -36 -12 -41 -36 -4 -17 -10 -30 -14 -30 -4 0 -21 -11 -37 -25 -16 -14 -32 -25 -36 -25 -5 0 -8 -6 -8 -14 0 -13 -39 -30 -48 -21 -3 3 1 12 9 21 9 11 -4 8 -41 -11 -49 -25 -53 -25 -36 -6 15 16 16 21 5 21 -8 0 -21 -6 -28 -12 -11 -11 -13 -10 -8 4 14 38 -169 -97 -242 -179 -24 -26 -55 -61 -70 -78 -42 -46 -84 -105 -79 -111 5 -5 53 52 75 90 7 12 12 17 13 11 0 -5 26 15 57 45 52 50 51 48 -10 -17 -60 -64 -67 -75 -68 -115 l-2 -43 -6 38 -6 39 -23 -31 c-13 -17 -27 -29 -32 -26 -5 3 -14 -5 -21 -17 -12 -22 -11 -22 6 -8 18 15 18 14 1 -12 -17 -26 -35 -41 -20 -16 4 7 3 8 -4 4 -6 -4 -8 -14 -5 -23 5 -12 3 -14 -8 -8 -8 4 -11 5 -7 1 3 -4 -12 -41 -34 -82 -29 -54 -42 -92 -48 -141 -6 -53 -8 -59 -9 -28 l-2 40 -20 -54 c-38 -108 -62 -248 -55 -322 6 -52 4 -69 -5 -69 -9 0 -10 -3 -2 -11 6 -6 9 -43 5 -99 -6 -105 11 -230 43 -319 13 -35 21 -69 18 -74 -4 -6 -1 -7 7 -2 10 6 12 4 7 -8 -8 -21 43 -148 56 -140 6 4 8 0 4 -11 -4 -10 -3 -15 3 -11 6 3 10 1 10 -5 0 -20 70 -152 101 -191 16 -20 29 -41 29 -46 0 -5 11 -20 24 -32 l23 -22 117 273 c125 294 163 355 232 378 79 26 169 -24 220 -122 10 -18 96 -226 192 -463 163 -404 174 -434 174 -497 1 -77 -19 -120 -72 -155 -82 -56 -201 -4 -257 112 -11 22 -62 145 -113 272 -52 128 -97 230 -101 225 -15 -16 -119 -273 -114 -282 8 -12 171 -100 195 -105 31 -6 36 -11 65 -67 65 -125 134 -197 209 -218 82 -23 176 18 217 94 l24 46 97 0 c53 0 100 4 103 10 3 5 10 29 14 52 6 31 9 35 10 16 1 -15 -4 -39 -9 -54 l-11 -27 63 7 c96 11 208 35 255 56 49 22 117 112 88 118 -8 2 -13 7 -10 12 7 11 -64 90 -81 90 -27 0 -25 35 3 59 15 13 20 21 11 18 -22 -8 -33 10 -18 27 8 11 8 15 -2 19 -7 3 -3 6 10 6 12 1 22 7 22 16 0 8 5 15 10 15 6 0 25 14 41 32 28 27 31 36 26 75 -6 55 -32 87 -58 72 -11 -5 -19 -19 -19 -29 0 -11 -4 -20 -10 -20 -5 0 -10 4 -10 8 0 5 -13 8 -30 7 -16 -1 -38 6 -47 15 -10 9 -22 17 -28 18 -9 1 -70 49 -102 80 -7 7 -13 11 -13 9 0 -3 -16 -1 -35 3 l-35 8 0 -168 c0 -167 0 -169 23 -173 l22 -4 -22 -2 c-23 -1 -23 -4 -23 -120 l0 -120 33 -4 c17 -2 5 -4 -28 -4 -33 0 -50 2 -37 4 21 4 22 8 22 124 0 77 -4 119 -11 119 -5 0 -7 -4 -4 -10 10 -16 -15 -12 -31 5 -14 13 -12 15 15 15 l31 0 0 170 c0 169 0 170 -23 175 -17 5 -28 20 -42 58 -10 29 -20 57 -22 63 -2 6 14 16 35 22 48 15 51 23 54 162 l2 105 3 -93 4 -93 43 6 c46 7 69 -6 47 -28 -6 -6 -11 -23 -11 -38 0 -15 -5 -31 -10 -34 -5 -3 -10 -16 -10 -29 0 -12 -6 -28 -12 -35 -11 -11 -7 -12 22 -5 44 9 121 7 152 -5 17 -7 18 -10 6 -10 -15 -1 -18 -10 -18 -54 0 -88 37 -117 104 -82 19 10 41 13 59 9 17 -3 39 -1 53 7 22 11 24 19 24 87 l0 74 -42 -6 -43 -5 43 11 42 11 0 68 c0 74 -7 82 -52 58 -17 -9 -20 -9 -16 3 4 10 -8 20 -36 32 -45 20 -135 17 -162 -5 -22 -18 -30 -2 -10 20 36 39 132 40 229 2 38 -15 45 -14 50 6 3 10 5 -26 6 -79 1 -83 3 -97 19 -101 16 -4 16 -5 0 -6 -15 -1 -18 -11 -18 -56 l0 -55 28 12 c15 7 34 17 42 23 33 26 44 29 37 12 -8 -22 -5 -21 38 4 28 17 38 19 50 9 11 -9 18 -10 29 -1 7 6 20 9 28 6 8 -3 32 8 53 25 40 32 55 39 36 16 -9 -11 -7 -15 11 -20 13 -3 26 -6 31 -6 4 0 8 28 9 63 l2 62 3 -54 c3 -35 10 -59 20 -66 9 -7 13 -17 10 -22 -4 -7 3 -10 18 -9 14 0 25 4 25 8 0 7 58 38 72 38 4 0 17 -14 27 -31 l20 -32 30 31 c19 18 31 42 32 59 1 18 3 22 6 10 4 -17 7 -17 31 5 21 19 20 16 -6 -17 -42 -53 -41 -70 2 -23 19 21 38 38 43 38 5 0 15 17 22 38 8 20 16 43 19 51 3 9 1 12 -6 7 -6 -4 0 17 13 46 14 29 28 80 31 113 5 40 9 53 14 40 5 -13 11 6 18 58 15 96 25 324 13 282 -7 -23 -9 -11 -10 52 -1 86 -17 171 -54 287 -22 69 -22 69 -29 35 -5 -26 -6 -21 -5 23 1 31 -1 54 -4 52 -3 -2 -13 14 -23 34 -13 29 -13 33 -1 18 8 -11 15 -17 15 -14 0 18 -72 159 -96 187 -72 84 -82 98 -92 126 -6 17 -11 23 -11 15 -1 -8 -10 4 -21 28 -12 26 -29 46 -45 52 -14 5 -25 15 -25 22 0 7 -12 18 -26 25 -22 10 -24 10 -13 -3 6 -8 9 -17 7 -20 -9 -8 -59 43 -62 63 -2 10 -7 18 -12 18 -12 0 -91 55 -80 55 5 0 3 7 -4 15 -7 9 -19 14 -25 11 -6 -2 -20 9 -29 25 -10 16 -34 38 -54 50 -20 11 -55 31 -77 45 -22 13 -73 35 -113 47 -40 13 -69 26 -66 30 4 3 -14 12 -39 19 -27 7 -42 15 -35 19 19 12 -55 24 -165 27 -30 1 -46 6 -42 12 8 13 -68 2 -114 -16 -19 -8 -36 -12 -38 -10 -4 3 40 21 97 40 8 2 2 5 -15 5 -16 1 -46 3 -65 5 -19 2 -45 2 -58 -1z m-149 -30 c-7 -2 -19 -2 -25 0 -7 3 -2 5 12 5 14 0 19 -2 13 -5z m310 -10 c-7 -2 -19 -2 -25 0 -7 3 -2 5 12 5 14 0 19 -2 13 -5z m-320 -10 c-13 -2 -35 -2 -50 0 -16 2 -5 4 22 4 28 0 40 -2 28 -4z m366 -9 c9 -8 -85 -2 -104 6 -12 5 4 6 40 3 33 -3 62 -7 64 -9z m164 -11 c4 -7 15 -13 22 -13 8 0 15 -7 15 -15 0 -9 6 -18 14 -21 11 -4 12 -13 6 -35 -5 -18 -5 -27 1 -24 5 4 18 3 29 0 19 -6 19 -8 4 -23 -15 -15 -15 -16 2 -23 11 -4 31 -8 46 -8 30 -1 64 -41 55 -65 -3 -8 3 -22 14 -32 14 -13 19 -26 15 -44 -3 -19 1 -31 15 -40 10 -8 19 -19 19 -25 0 -14 48 -65 62 -65 9 0 9 -3 1 -11 -9 -9 6 -33 61 -98 66 -77 173 -219 195 -260 8 -13 12 -13 28 -1 17 13 17 13 1 -4 -15 -17 -15 -21 -1 -45 l15 -26 -19 24 c-14 16 -25 21 -34 16 -11 -7 -12 -6 -2 6 11 13 4 28 -38 90 -106 154 -246 314 -263 300 -16 -12 -73 15 -92 45 -11 15 -20 21 -24 14 -7 -12 -50 20 -50 38 0 6 -6 9 -14 6 -18 -7 -33 16 -17 25 8 5 5 13 -9 26 -17 15 -23 16 -29 6 -7 -11 -10 -11 -17 0 -5 8 -9 19 -9 24 0 6 -9 10 -20 10 -11 0 -22 3 -25 6 -11 12 -55 39 -64 39 -6 0 8 -19 30 -42 21 -24 50 -57 64 -73 14 -17 -4 0 -38 37 -41 43 -72 68 -85 68 -18 0 -20 2 -7 11 11 8 6 9 -21 6 -20 -3 -42 -1 -50 4 -12 7 -12 9 1 9 8 1 4 6 -10 12 -15 6 -20 12 -12 15 18 7 14 23 -6 23 -28 0 -33 -10 -16 -35 14 -21 13 -22 -13 -19 -16 2 -20 1 -10 -2 26 -8 21 -26 -5 -19 -18 5 -20 4 -8 -4 21 -15 63 -14 54 1 -4 7 -3 8 4 4 6 -4 20 -27 31 -51 14 -33 24 -43 35 -39 11 4 16 0 16 -12 0 -15 2 -16 9 -5 7 12 12 11 30 -1 11 -8 18 -17 15 -21 -5 -5 104 -32 118 -29 7 2 44 -44 87 -105 12 -18 20 -33 18 -33 -3 0 -27 30 -53 66 -45 64 -47 66 -59 44 -8 -15 -15 -19 -19 -11 -4 6 -12 9 -17 6 -15 -10 -10 -25 8 -25 37 0 70 -58 43 -75 -11 -7 -74 12 -105 32 -26 17 -36 16 -28 -3 4 -11 -3 -8 -18 7 -27 26 -28 29 -7 33 7 1 23 8 34 16 21 13 21 14 -14 32 -45 22 -45 22 -32 -3 7 -11 10 -23 7 -25 -2 -3 -10 9 -17 25 -13 33 -55 65 -70 56 -6 -4 -7 -23 -4 -45 5 -31 3 -40 -14 -49 -10 -6 -22 -8 -25 -5 -2 3 -9 -9 -15 -25 -6 -17 -16 -31 -21 -31 -6 0 -11 -17 -12 -37 -1 -33 -2 -34 -8 -13 l-7 25 -27 -29 c-15 -16 -27 -33 -27 -37 0 -5 48 -10 108 -11 79 -1 89 -3 40 -5 l-68 -4 0 -39 c0 -30 5 -40 20 -45 11 -3 20 -11 20 -16 0 -5 6 -9 14 -9 8 0 21 -7 29 -15 8 -8 28 -13 43 -12 26 2 29 -2 32 -30 2 -22 12 -39 32 -53 27 -19 29 -19 38 -4 7 13 4 27 -10 52 -19 34 -19 35 1 54 29 26 26 44 -10 78 -17 15 -28 33 -25 39 5 7 -2 11 -16 12 -23 1 -23 1 2 8 17 5 21 9 12 15 -7 4 -10 11 -7 16 3 5 1 11 -5 15 -37 23 25 38 72 17 18 -8 40 -15 48 -16 9 -1 15 -10 14 -23 0 -15 5 -23 15 -23 9 0 26 -3 39 -6 18 -5 22 -2 22 15 0 18 -5 20 -32 16 -18 -3 -4 4 32 14 36 11 69 20 74 21 18 0 -5 -14 -26 -17 -12 -2 -24 -5 -26 -7 -2 -2 20 -27 48 -55 50 -49 69 -63 54 -40 -4 7 11 0 32 -15 21 -14 46 -26 55 -26 29 0 40 -24 23 -49 -15 -21 -15 -52 0 -96 4 -11 0 -8 -8 7 l-16 26 -51 -16 c-28 -9 -54 -23 -57 -32 -3 -8 -12 -21 -19 -28 -7 -7 -13 -18 -13 -24 0 -6 9 1 20 14 22 28 51 40 71 28 10 -7 10 -12 -1 -25 -12 -15 -11 -19 8 -33 15 -12 20 -23 16 -39 -4 -13 -4 -23 -1 -23 9 0 67 61 67 71 0 15 17 10 24 -8 4 -9 1 -20 -6 -25 -8 -5 -1 -7 17 -3 17 3 25 3 18 -1 -7 -3 -9 -13 -6 -22 4 -14 3 -15 -6 -2 -9 13 -14 13 -45 -4 -19 -10 -36 -27 -38 -38 -4 -25 -22 -24 -28 1 -5 19 -7 19 -39 -10 -26 -22 -35 -38 -35 -65 -1 -23 -9 -41 -21 -50 -10 -8 -15 -14 -9 -14 5 0 2 -6 -7 -13 -8 -7 -21 -38 -28 -69 -10 -49 -16 -58 -34 -58 -21 0 -21 -1 3 -13 19 -10 24 -20 23 -43 -1 -16 -8 -31 -15 -33 -7 -2 -21 -15 -33 -29 -11 -13 -31 -36 -43 -50 -13 -13 -26 -40 -29 -58 -5 -30 -3 -34 18 -35 16 -1 19 -3 7 -6 -16 -4 -15 -7 3 -43 23 -43 28 -95 11 -112 -8 -8 -14 -7 -24 3 -27 28 -48 69 -48 93 0 25 -19 38 -60 42 -14 2 -38 6 -55 9 -23 5 -26 4 -15 -4 12 -8 6 -11 -26 -11 -28 0 -44 -5 -48 -15 -6 -16 -46 -21 -46 -7 0 17 -98 7 -118 -11 -11 -10 -29 -19 -41 -20 -13 -1 -21 -8 -21 -19 0 -27 -16 -30 -36 -6 -11 11 -39 34 -63 50 -74 47 -172 36 -239 -25 l-23 -22 -34 40 c-38 45 -43 66 -18 86 47 40 69 172 40 242 -34 79 -104 131 -196 143 -47 6 -51 9 -51 33 1 14 8 44 16 66 8 22 16 47 17 55 1 8 7 20 14 25 7 6 18 29 26 51 12 35 12 44 0 60 -17 23 -10 110 11 125 4 4 3 17 -4 29 -10 18 -9 24 1 31 8 5 10 9 5 9 -5 0 -3 7 4 15 7 8 8 15 3 15 -7 0 -7 15 -3 40 4 23 5 38 2 35 -11 -11 -32 18 -27 39 4 17 -5 28 -46 54 -50 33 -51 33 -90 18 -44 -18 -104 -22 -94 -6 3 6 16 10 28 10 12 0 31 7 41 15 17 13 18 15 2 21 -13 5 -14 9 -5 20 25 30 1 21 -49 -18 -39 -30 -49 -44 -40 -50 10 -7 9 -8 -3 -6 -22 4 -84 -47 -153 -126 l-57 -65 16 -30 c8 -17 13 -31 11 -31 -3 0 -12 12 -19 27 l-14 27 -48 -65 c-26 -35 -58 -83 -72 -106 -14 -24 -27 -43 -30 -43 -9 0 42 81 94 151 29 39 53 72 53 73 0 11 142 153 215 214 56 47 92 85 96 101 4 15 7 19 8 9 0 -10 3 -18 5 -18 11 0 102 66 114 82 13 18 58 26 47 8 -3 -6 1 -7 9 -4 9 3 14 10 11 14 -8 12 29 37 52 35 12 -1 20 1 18 5 -5 7 65 43 72 37 2 -2 -10 -10 -27 -17 -29 -12 -44 -38 -15 -26 13 5 28 -12 87 -98 4 -5 32 11 65 38 l58 48 -50 -47 -50 -47 44 7 c39 6 43 5 38 -9 -4 -11 -3 -15 4 -10 6 3 24 -3 40 -15 33 -25 40 -26 33 -6 -4 8 -1 15 6 15 6 0 8 5 5 10 -3 6 -1 10 6 10 7 0 9 3 6 6 -4 4 -13 2 -20 -4 -10 -9 -18 -8 -33 3 -18 15 -18 16 11 40 17 14 35 23 40 21 6 -2 16 3 23 10 7 8 11 14 8 14 -3 0 30 36 73 80 43 44 80 80 83 80 3 0 -21 -27 -53 -60 -32 -33 -59 -67 -59 -76 0 -8 -7 -17 -15 -20 -8 -4 -12 -10 -9 -15 3 -5 -3 -9 -13 -10 -10 0 -13 -3 -5 -6 6 -2 12 -14 12 -25 0 -18 4 -20 46 -13 42 6 46 5 40 -11 -3 -9 1 -28 9 -41 18 -27 12 -43 -16 -43 -24 0 -25 -16 -1 -22 24 -6 42 1 42 17 0 8 5 17 10 20 16 10 40 -14 33 -33 -6 -14 -5 -15 9 -2 16 15 13 40 -4 40 -6 0 -8 13 -5 33 3 17 3 26 0 20 -7 -18 -38 -16 -53 2 -10 12 -10 15 4 15 9 0 16 6 17 13 0 10 2 10 6 0 6 -16 33 -17 33 -3 0 7 7 7 21 0 14 -8 17 -15 11 -23 -6 -7 -8 -24 -5 -39 4 -21 11 -28 29 -28 16 0 28 -8 33 -22 9 -23 9 -23 20 6 14 34 11 39 -29 40 -27 1 -30 4 -30 34 0 18 4 31 9 27 5 -3 12 -1 16 5 3 5 11 10 16 10 6 0 7 -4 4 -10 -3 -5 -2 -10 4 -10 5 0 13 5 16 10 3 6 13 10 21 10 8 0 13 -4 9 -9 -3 -5 0 -13 6 -17 8 -4 9 -3 5 4 -4 7 -1 12 8 12 8 0 13 6 11 13 -6 15 -236 17 -247 2 -5 -6 -8 -5 -8 4 0 10 -8 12 -31 7 -25 -5 -30 -3 -27 12 2 12 13 17 38 17 19 0 38 -4 43 -10 4 -6 11 -4 17 5 9 13 12 13 21 -2 6 -11 22 -18 37 -18 l27 1 -27 15 c-35 18 -36 28 -3 20 31 -8 35 16 5 30 -17 8 -18 12 -7 34 10 18 20 24 40 23 32 -2 34 5 6 43 l-21 29 26 -27 c14 -16 35 -28 48 -28 21 0 20 2 -9 21 -18 12 -33 23 -33 26 0 5 14 -3 52 -29 14 -10 37 -18 50 -18 20 1 19 3 -11 19 l-34 18 37 13 c20 6 45 9 54 5 9 -4 33 -8 52 -10 19 -1 36 -7 38 -13 1 -5 13 -8 25 -5 17 4 19 3 7 -6 -11 -7 -6 -9 20 -8 19 1 45 -2 58 -6 17 -6 22 -5 22 7 0 9 -4 16 -10 16 -5 0 -9 3 -9 8 3 20 -2 32 -16 32 -8 0 -15 4 -15 8 0 5 -24 7 -52 5 -39 -4 -58 0 -73 12 -19 16 -19 16 10 11 17 -2 37 -1 45 4 19 11 62 1 73 -17z m-610 -20 c-13 -2 -33 -2 -45 0 -13 2 -3 4 22 4 25 0 35 -2 23 -4z m-165 -21 c-9 -2 -19 -10 -22 -18 -4 -11 1 -13 22 -9 22 4 24 4 7 -4 -35 -17 -47 -13 -39 12 8 26 24 38 39 29 6 -4 3 -8 -7 -10z m70 11 c-10 -2 -26 -2 -35 0 -10 3 -2 5 17 5 19 0 27 -2 18 -5z m210 -12 l33 -17 -28 -12 c-27 -12 -27 -12 -8 4 19 16 19 16 -10 11 -16 -4 -23 -3 -15 0 10 5 2 11 -25 19 -38 12 -38 12 -10 13 17 0 45 -8 63 -18z m405 12 c-7 -2 -21 -2 -30 0 -10 3 -4 5 12 5 17 0 24 -2 18 -5z m170 0 c-7 -2 -19 -2 -25 0 -7 3 -2 5 12 5 14 0 19 -2 13 -5z m-690 -10 c-7 -2 -19 -2 -25 0 -7 3 -2 5 12 5 14 0 19 -2 13 -5z m570 0 c-7 -2 -19 -2 -25 0 -7 3 -2 5 12 5 14 0 19 -2 13 -5z m-786 -9 c-3 -3 -12 -4 -19 -1 -8 3 -5 6 6 6 11 1 17 -2 13 -5z m160 0 c-3 -3 -12 -4 -19 -1 -8 3 -5 6 6 6 11 1 17 -2 13 -5z m110 0 c-3 -3 -12 -4 -19 -1 -8 3 -5 6 6 6 11 1 17 -2 13 -5z m154 -21 c-12 -20 -14 -14 -5 12 4 9 9 14 11 11 3 -2 0 -13 -6 -23z m36 -10 c-3 -10 -5 -4 -5 12 0 17 2 24 5 18 2 -7 2 -21 0 -30z m380 31 c-3 -3 -12 -4 -19 -1 -8 3 -5 6 6 6 11 1 17 -2 13 -5z m-724 -11 c-7 -2 -19 -2 -25 0 -7 3 -2 5 12 5 14 0 19 -2 13 -5z m102 -3 c-11 -5 -27 -9 -35 -9 -9 0 -8 4 5 9 11 5 27 9 35 9 9 0 8 -4 -5 -9z m16 -26 c-29 -13 -56 -24 -60 -23 -9 1 93 49 104 48 6 0 -14 -11 -44 -25z m686 19 c-4 -3 -10 -3 -14 0 -3 4 0 7 7 7 7 0 10 -3 7 -7z m-760 -10 c-4 -3 -10 -3 -14 0 -3 4 0 7 7 7 7 0 10 -3 7 -7z m800 1 c-3 -3 -12 -4 -19 -1 -8 3 -5 6 6 6 11 1 17 -2 13 -5z m-960 -11 c-4 -3 -10 -3 -14 0 -3 4 0 7 7 7 7 0 10 -3 7 -7z m130 0 c-4 -3 -10 -3 -14 0 -3 4 0 7 7 7 7 0 10 -3 7 -7z m173 4 c0 -2 -31 -25 -70 -51 -38 -27 -70 -50 -70 -52 0 -2 15 -8 33 -14 31 -10 31 -10 -8 -4 -38 5 -74 24 -47 24 7 0 45 23 84 50 68 48 78 54 78 47z m687 -4 c-4 -3 -10 -3 -14 0 -3 4 0 7 7 7 7 0 10 -3 7 -7z m-1020 -10 c-4 -3 -10 -3 -14 0 -3 4 0 7 7 7 7 0 10 -3 7 -7z m89 -7 c18 6 18 6 1 -8 -17 -13 -17 -15 -3 -27 9 -7 23 -11 31 -7 9 3 13 2 10 -3 -3 -6 3 -14 12 -20 10 -6 14 -10 8 -11 -5 0 -16 4 -24 9 -10 6 -26 4 -45 -5 -30 -14 -30 -14 -8 2 21 16 22 18 6 35 -13 14 -21 16 -36 8 -11 -6 -22 -8 -25 -6 -2 3 5 8 16 12 12 3 21 14 21 23 0 13 2 14 8 4 5 -7 16 -10 28 -6z m41 7 c-4 -3 -10 -3 -14 0 -3 4 0 7 7 7 7 0 10 -3 7 -7z m304 -20 c-12 -20 -14 -14 -5 12 4 9 9 14 11 11 3 -2 0 -13 -6 -23z m616 20 c-4 -3 -10 -3 -14 0 -3 4 0 7 7 7 7 0 10 -3 7 -7z m-1080 -10 c-4 -3 -10 -3 -14 0 -3 4 0 7 7 7 7 0 10 -3 7 -7z m1123 -3 c8 -5 11 -10 5 -10 -5 0 -17 5 -25 10 -8 5 -10 10 -5 10 6 0 17 -5 25 -10z m-1153 -7 c-4 -3 -10 -3 -14 0 -3 4 0 7 7 7 7 0 10 -3 7 -7z m1063 -13 c8 -5 11 -10 5 -10 -5 0 -17 5 -25 10 -8 5 -10 10 -5 10 6 0 17 -5 25 -10z m140 0 c8 -5 11 -10 5 -10 -5 0 -17 5 -25 10 -8 5 -10 10 -5 10 6 0 17 -5 25 -10z m-700 -42 c0 -5 -5 -6 -11 -2 -6 3 -16 0 -21 -7 -8 -11 -8 -10 -4 4 3 10 6 23 6 29 0 6 6 6 15 -2 8 -7 15 -17 15 -22z m610 22 c8 -5 11 -10 5 -10 -5 0 -17 5 -25 10 -8 5 -10 10 -5 10 6 0 17 -5 25 -10z m170 -15 c17 -9 30 -18 30 -21 0 -4 -59 23 -69 32 -10 9 13 3 39 -11z m-843 -2 c-4 -3 -10 -3 -14 0 -3 4 0 7 7 7 7 0 10 -3 7 -7z m-337 -28 c0 -2 -10 -9 -22 -15 -22 -11 -22 -10 -4 4 21 17 26 19 26 11z m1168 -33 c41 -23 61 -43 23 -22 -13 7 -22 7 -26 0 -8 -13 -55 -13 -55 0 0 6 -5 9 -11 8 -6 -2 -14 3 -16 10 -3 6 0 12 6 12 6 0 8 7 5 15 -8 19 12 13 74 -23z m-521 12 c-3 -3 -12 -4 -19 -1 -8 3 -5 6 6 6 11 1 17 -2 13 -5z m-1012 -25 c-4 -5 -21 -16 -38 -25 l-32 -17 30 30 c27 26 53 35 40 12z m1415 -10 c17 -13 18 -17 5 -10 -33 17 -51 31 -40 31 6 0 21 -10 35 -21z m233 -51 l22 -19 -22 13 c-12 7 -23 10 -25 8 -2 -3 -11 -20 -20 -38 l-18 -33 38 -32 c81 -70 141 -130 203 -202 l64 -76 17 38 c10 21 18 32 18 25 0 -7 -7 -26 -15 -42 -15 -29 -14 -31 34 -97 50 -69 117 -183 108 -183 -3 0 -20 26 -37 58 -18 31 -53 85 -77 120 -39 55 -47 61 -61 50 -15 -12 -16 -11 -3 4 12 16 9 24 -25 65 -50 62 -214 226 -249 249 -15 10 -30 13 -33 8 -4 -5 -18 -18 -32 -29 -20 -16 -19 -13 5 13 l30 33 -27 20 c-53 39 -72 60 -22 25 29 -20 55 -36 58 -36 11 0 36 66 37 97 2 26 2 26 6 4 3 -13 15 -33 26 -43z m-48 32 c3 -5 4 -10 1 -10 -3 0 -8 5 -11 10 -3 6 -4 10 -1 10 3 0 8 -4 11 -10z m-140 -10 c3 -5 4 -10 1 -10 -3 0 -8 5 -11 10 -3 6 -4 10 -1 10 3 0 8 -4 11 -10z m-1535 -4 c0 -3 -15 -14 -32 -26 l-33 -22 30 26 c31 27 35 29 35 22z m607 -33 c-4 -3 -7 0 -7 7 0 7 3 10 7 7 3 -4 3 -10 0 -14z m1209 -55 c4 -7 -9 1 -29 16 -20 16 -37 30 -37 33 0 7 58 -36 66 -49z m-1886 39 c0 -2 -10 -12 -22 -23 l-23 -19 19 23 c18 21 26 27 26 19z m2039 -171 c18 -19 27 -23 33 -14 5 9 8 5 8 -11 0 -14 10 -36 23 -50 21 -25 21 -25 0 -8 -21 18 -21 18 -26 0 -3 -11 -5 -6 -6 12 -1 24 -18 47 -88 114 -59 56 -68 68 -28 34 33 -28 71 -63 84 -77z m-1910 -3 c-46 -49 -104 -110 -128 -138 -42 -49 -42 -49 -10 -5 35 47 208 230 217 230 3 0 -32 -39 -79 -87z m982 40 c20 -22 21 -25 5 -19 -11 4 -22 2 -26 -4 -4 -6 -15 -7 -28 -3 -21 8 -21 10 -6 31 19 28 25 28 55 -5z m449 -18 c-14 -8 -29 -14 -35 -14 -5 0 1 6 15 14 14 8 30 14 35 14 6 0 -1 -6 -15 -14z m-53 -22 c-4 -3 -10 -3 -14 0 -3 4 0 7 7 7 7 0 10 -3 7 -7z m-1207 -52 c-5 -11 -15 -23 -22 -27 -7 -5 -8 -2 -3 7 21 37 44 55 25 20z m1185 9 c3 -5 4 -10 1 -10 -3 0 -8 5 -11 10 -3 6 -4 10 -1 10 3 0 8 -4 11 -10z m25 -40 c6 -11 8 -20 6 -20 -3 0 -10 9 -16 20 -6 11 -8 20 -6 20 3 0 10 -9 16 -20z m-1286 -80 c-26 -38 -49 -70 -51 -70 -5 0 2 12 49 83 21 31 41 57 43 57 3 0 -16 -31 -41 -70z m73 38 c-3 -8 -6 -5 -6 6 -1 11 2 17 5 13 3 -3 4 -12 1 -19z m1882 -46 c36 -54 70 -113 58 -102 -12 12 -114 169 -106 164 5 -3 26 -31 48 -62z m-1899 13 c-7 -9 -15 -13 -17 -11 -7 7 7 26 19 26 6 0 6 -6 -2 -15z m-343 -59 l25 29 -22 -33 c-22 -32 -22 -34 -4 -48 42 -33 138 -94 149 -94 7 0 18 14 25 30 7 17 17 33 22 36 5 3 0 -12 -11 -35 l-21 -40 37 -20 c21 -11 34 -20 30 -21 -4 0 -21 7 -38 15 -16 9 -34 13 -39 10 -6 -3 -10 -2 -10 3 0 6 -19 21 -42 35 -24 14 -61 39 -82 56 -32 26 -42 29 -55 19 -13 -10 -14 -10 -4 2 10 11 8 21 -13 49 l-26 36 27 -29 27 -29 25 29z m1742 -28 c11 -18 21 -27 21 -20 0 23 28 12 38 -15 8 -22 11 -24 11 -8 1 17 3 17 11 5 5 -8 10 -23 10 -34 0 -15 -3 -16 -15 -6 -12 10 -15 10 -15 -1 0 -11 -2 -11 -10 1 -7 11 -12 12 -17 4 -5 -6 -24 -15 -43 -18 -19 -4 -30 -4 -23 1 8 6 9 22 2 57 -8 42 -6 66 6 66 1 0 12 -15 24 -32z m331 19 c0 -2 -15 -16 -32 -33 l-33 -29 29 33 c28 30 36 37 36 29z m-1850 -37 c-6 -11 -13 -20 -16 -20 -2 0 0 9 6 20 6 11 13 20 16 20 2 0 0 -9 -6 -20z m-270 -34 c0 -3 -5 -8 -12 -12 -7 -4 -8 -3 -4 4 7 12 16 16 16 8z m1705 -16 c3 -5 2 -10 -4 -10 -5 0 -13 5 -16 10 -3 6 -2 10 4 10 5 0 13 -4 16 -10z m-1735 -30 c-6 -11 -13 -20 -16 -20 -2 0 0 9 6 20 6 11 13 20 16 20 2 0 0 -9 -6 -20z m2010 5 c0 -2 -13 -11 -30 -20 -38 -19 -40 -11 -2 9 31 17 32 18 32 11z m-2234 -86 c-13 -27 -27 -53 -31 -57 -8 -8 10 39 30 78 25 49 26 34 1 -21z m194 31 c-6 -11 -13 -20 -16 -20 -2 0 0 9 6 20 6 11 13 20 16 20 2 0 0 -9 -6 -20z m2135 -10 c9 -16 13 -30 11 -30 -3 0 -12 14 -21 30 -9 17 -13 30 -11 30 3 0 12 -13 21 -30z m-205 5 c-14 -8 -29 -14 -35 -14 -5 0 1 6 15 14 14 8 30 14 35 14 6 0 -1 -6 -15 -14z m-1520 -37 c10 -6 7 -7 -10 -2 -14 3 -32 11 -40 16 -10 6 -7 7 10 2 14 -3 32 -11 40 -16z m1489 -83 c0 -5 -6 1 -14 15 -8 14 -14 30 -14 35 0 6 6 -1 14 -15 8 -14 14 -29 14 -35z m540 3 c-8 -23 -22 -52 -32 -63 -19 -20 -19 -20 -7 3 6 13 9 36 6 50 -3 15 -3 21 0 15 10 -22 22 -14 29 18 4 17 9 28 12 26 2 -3 -1 -25 -8 -49z m-2476 -2 c18 -7 42 -24 54 -37 12 -13 65 -121 118 -239 91 -203 96 -218 93 -271 -7 -97 -74 -157 -165 -146 -85 9 -106 38 -216 283 -80 176 -99 228 -99 266 -1 116 109 189 215 144z m223 -23 c-8 -15 -15 -25 -16 -21 0 12 23 58 27 54 3 -2 -2 -17 -11 -33z m1734 -28 c0 -5 -5 -3 -10 5 -5 8 -10 20 -10 25 0 6 5 3 10 -5 5 -8 10 -19 10 -25z m309 -30 c0 -5 -6 1 -14 15 -8 14 -14 30 -14 35 0 6 6 -1 14 -15 8 -14 14 -29 14 -35z m-2068 -2 c-12 -20 -14 -14 -5 12 4 9 9 14 11 11 3 -2 0 -13 -6 -23z m2289 -8 c0 -5 -5 -3 -10 5 -5 8 -10 20 -10 25 0 6 5 3 10 -5 5 -8 10 -19 10 -25z m-523 8 c-4 -3 -7 0 -7 7 0 7 3 10 7 7 3 -4 3 -10 0 -14z m445 -31 c-40 -56 -156 -152 -229 -191 -44 -23 -23 -5 52 44 63 41 74 52 69 69 -11 34 -11 43 0 19 5 -13 13 -23 17 -23 4 0 29 25 56 55 53 60 65 70 35 27z m-413 -44 c12 -34 21 -67 20 -72 0 -6 -8 12 -18 39 -27 76 -33 95 -28 95 3 0 15 -28 26 -62z m291 27 c0 -5 -5 -3 -10 5 -5 8 -10 20 -10 25 0 6 5 3 10 -5 5 -8 10 -19 10 -25z m207 8 c-4 -3 -7 0 -7 7 0 7 3 10 7 7 3 -4 3 -10 0 -14z m10 -30 c-4 -3 -7 0 -7 7 0 7 3 10 7 7 3 -4 3 -10 0 -14z m-1972 -22 c45 -20 92 -70 101 -107 4 -14 4 -49 2 -79 -8 -96 -76 -155 -178 -155 -59 0 -97 17 -134 60 -79 95 -47 227 69 281 51 23 89 23 140 0z m1982 -13 c-3 -8 -6 -5 -6 6 -1 11 2 17 5 13 3 -3 4 -12 1 -19z m-2770 -20 c-3 -7 -5 -2 -5 12 0 14 2 19 5 13 2 -7 2 -19 0 -25z m2780 -20 c-3 -8 -6 -5 -6 6 -1 11 2 17 5 13 3 -3 4 -12 1 -19z m-870 -20 c-3 -8 -6 -5 -6 6 -1 11 2 17 5 13 3 -3 4 -12 1 -19z m670 5 c-4 -3 -7 0 -7 7 0 7 3 10 7 7 3 -4 3 -10 0 -14z m-300 -20 c-4 -3 -7 0 -7 7 0 7 3 10 7 7 3 -4 3 -10 0 -14z m510 -5 c-3 -8 -6 -5 -6 6 -1 11 2 17 5 13 3 -3 4 -12 1 -19z m-188 -38 c0 -9 -4 -8 -9 5 -5 11 -9 27 -9 35 0 9 4 8 9 -5 5 -11 9 -27 9 -35z m-682 3 c-3 -10 -5 -4 -5 12 0 17 2 24 5 18 2 -7 2 -21 0 -30z m382 -23 c0 -9 -4 -8 -9 5 -5 11 -9 27 -9 35 0 9 4 8 9 -5 5 -11 9 -27 9 -35z m498 3 c-3 -10 -5 -4 -5 12 0 17 2 24 5 18 2 -7 2 -21 0 -30z m-397 2 c0 -6 -56 -35 -67 -35 -4 1 8 9 27 20 39 22 40 22 40 15z m420 -47 c-7 -24 -18 -47 -23 -53 -7 -7 -8 -4 -3 8 3 10 6 30 6 43 0 14 4 22 10 19 6 -3 10 4 10 16 0 12 3 19 7 16 3 -4 0 -26 -7 -49z m-893 10 c-3 -7 -5 -2 -5 12 0 14 2 19 5 13 2 -7 2 -19 0 -25z m692 -18 c0 -9 -4 -8 -9 5 -5 11 -9 27 -9 35 0 9 4 8 9 -5 5 -11 9 -27 9 -35z m-306 10 c-12 -11 -95 -41 -99 -37 -3 2 16 12 41 21 25 10 45 22 45 27 0 6 5 7 11 3 6 -3 7 -10 2 -14z m-2316 -7 c-4 -3 -7 0 -7 7 0 7 3 10 7 7 3 -4 3 -10 0 -14z m1940 -40 c-3 -10 -5 -4 -5 12 0 17 2 24 5 18 2 -7 2 -21 0 -30z m-1908 -20 c12 -24 19 -43 16 -43 -5 0 -45 75 -45 86 0 11 6 2 29 -43z m2288 25 c-3 -8 -6 -5 -6 6 -1 11 2 17 5 13 3 -3 4 -12 1 -19z m310 -20 c-3 -7 -5 -2 -5 12 0 14 2 19 5 13 2 -7 2 -19 0 -25z m-430 15 c-4 -3 -10 -3 -14 0 -3 4 0 7 7 7 7 0 10 -3 7 -7z m-37 -13 c-8 -5 -22 -9 -30 -9 -10 0 -8 3 5 9 27 12 43 12 25 0z m167 -22 c-3 -8 -6 -5 -6 6 -1 11 2 17 5 13 3 -3 4 -12 1 -19z m-363 -30 c7 -5 5 -8 -6 -8 -13 0 -18 7 -17 28 1 21 2 22 6 7 3 -11 10 -23 17 -27z m143 35 c-4 -3 -10 -3 -14 0 -3 4 0 7 7 7 7 0 10 -3 7 -7z m661 -34 c-12 -22 -28 -45 -36 -51 -7 -7 1 12 19 40 38 62 50 69 17 11z m-703 21 c-11 -5 -27 -9 -35 -9 -9 0 -8 4 5 9 11 5 27 9 35 9 9 0 8 -4 -5 -9z m572 -22 c-3 -7 -5 -2 -5 12 0 14 2 19 5 13 2 -7 2 -19 0 -25z m-2490 -121 l66 -72 -69 70 c-63 64 -111 127 -85 110 7 -3 12 3 13 17 1 13 3 6 5 -15 3 -30 18 -53 70 -110z m2670 76 c-2 -16 -4 -5 -4 22 0 28 2 40 4 28 2 -13 2 -35 0 -50z m-810 51 c-3 -3 -12 -4 -19 -1 -8 3 -5 6 6 6 11 1 17 -2 13 -5z m330 -16 c-3 -8 -6 -5 -6 6 -1 11 2 17 5 13 3 -3 4 -12 1 -19z m-424 -5 c-7 -2 -19 -2 -25 0 -7 3 -2 5 12 5 14 0 19 -2 13 -5z m-50 -10 c-7 -2 -21 -2 -30 0 -10 3 -4 5 12 5 17 0 24 -2 18 -5z m94 -40 c-3 -10 -5 -4 -5 12 0 17 2 24 5 18 2 -7 2 -21 0 -30z m390 0 c-3 -10 -5 -4 -5 12 0 17 2 24 5 18 2 -7 2 -21 0 -30z m300 0 c-3 -10 -5 -4 -5 12 0 17 2 24 5 18 2 -7 2 -21 0 -30z m-1775 -21 c34 -74 32 -78 -15 -33 -42 40 -45 46 -29 57 24 19 25 18 44 -24z m1820 -15 c-26 -27 -32 -42 -34 -82 l-1 -50 -4 44 -4 44 -27 -25 c-15 -14 -45 -37 -67 -53 -41 -28 -25 -12 53 51 30 25 42 43 43 62 0 21 2 23 8 9 6 -16 9 -16 31 8 13 14 26 25 29 25 3 0 -9 -15 -27 -33z m-2625 -89 c-2 -24 -4 -7 -4 37 0 44 2 63 4 43 2 -21 2 -57 0 -80z m1900 50 c-2 -13 -4 -5 -4 17 -1 22 1 32 4 23 2 -10 2 -28 0 -40z m390 20 c-3 -7 -5 -2 -5 12 0 14 2 19 5 13 2 -7 2 -19 0 -25z m-1178 -19 c20 -11 43 -30 52 -43 25 -33 197 -422 204 -460 15 -79 -43 -167 -121 -182 -48 -9 -106 10 -142 45 -42 43 -214 431 -219 496 -10 123 118 205 226 144z m1188 -61 c-2 -13 -4 -5 -4 17 -1 22 1 32 4 23 2 -10 2 -28 0 -40z m-390 -25 c-3 -10 -5 -2 -5 17 0 19 2 27 5 18 2 -10 2 -26 0 -35z m400 -65 c-2 -13 -4 -3 -4 22 0 25 2 35 4 23 2 -13 2 -33 0 -45z m-2090 -125 c-2 -32 -3 -6 -3 57 0 63 1 89 3 58 2 -32 2 -84 0 -115z m98 114 c16 -15 -48 20 -70 38 -11 9 -2 7 20 -6 22 -12 45 -26 50 -32z m2125 49 c0 -3 -5 -8 -12 -12 -7 -4 -8 -3 -4 4 7 12 16 16 16 8z m-2432 -51 c-3 -24 -2 -43 2 -40 4 3 10 -9 14 -25 3 -20 37 -61 97 -122 l92 -93 8 30 8 30 -3 -32 c-1 -18 1 -33 6 -33 4 0 8 -7 8 -16 0 -8 -45 29 -100 83 -57 56 -100 92 -101 83 -1 -8 -7 5 -15 29 -7 24 -17 48 -22 55 -9 11 -4 96 5 96 3 0 3 -20 1 -45z m2402 30 c0 -2 -13 -11 -30 -20 -38 -19 -40 -11 -2 9 31 17 32 18 32 11z m177 -112 c-2 -21 -4 -4 -4 37 0 41 2 58 4 38 2 -21 2 -55 0 -75z m-494 88 c4 -1 7 -8 7 -17 0 -8 -4 -13 -9 -10 -4 3 -24 -3 -44 -13 -42 -22 -122 -37 -112 -21 3 5 15 10 26 10 10 0 19 5 19 10 0 6 -4 10 -10 10 -5 0 -10 7 -10 16 0 10 6 14 14 11 8 -3 27 -2 42 2 16 4 38 6 49 5 11 -1 23 -3 28 -3z m59 -13 c-6 -6 -15 -8 -19 -4 -4 4 -1 11 7 16 19 12 27 3 12 -12z m163 -18 c-3 -5 -11 -10 -16 -10 -6 0 -7 5 -4 10 3 6 11 10 16 10 6 0 7 -4 4 -10z m-85 -40 c-8 -5 -19 -10 -25 -10 -5 0 -3 5 5 10 8 5 20 10 25 10 6 0 3 -5 -5 -10z m430 -9 c-5 -11 -15 -23 -21 -27 -6 -3 -3 5 6 20 20 30 30 35 15 7z m-493 -18 c-4 -3 -10 -3 -14 0 -3 4 0 7 7 7 7 0 10 -3 7 -7z m-53 -18 c-17 -8 -44 -16 -60 -20 -16 -3 -6 4 21 14 57 22 86 26 39 6z m-97 -32 c-4 -3 -10 -3 -14 0 -3 4 0 7 7 7 7 0 10 -3 7 -7z m-30 -9 c-3 -3 -12 -4 -19 -1 -8 3 -5 6 6 6 11 1 17 -2 13 -5z m-174 -41 c-7 -2 -19 -2 -25 0 -7 3 -2 5 12 5 14 0 19 -2 13 -5z m-50 -10 c-7 -2 -21 -2 -30 0 -10 3 -4 5 12 5 17 0 24 -2 18 -5z m-65 -390 c-10 -2 -26 -2 -35 0 -10 3 -2 5 17 5 19 0 27 -2 18 -5z m-100 -10 c-16 -2 -40 -2 -55 0 -16 2 -3 4 27 4 30 0 43 -2 28 -4z m-395 -10 c-7 -2 -19 -2 -25 0 -7 3 -2 5 12 5 14 0 19 -2 13 -5z m110 -10 c-13 -2 -33 -2 -45 0 -13 2 -3 4 22 4 25 0 35 -2 23 -4z m-695 -58 c-3 -3 -9 2 -12 12 -6 14 -5 15 5 6 7 -7 10 -15 7 -18z m31 -55 c3 -3 7 -12 9 -20 2 -10 -4 -7 -18 8 -11 12 -25 22 -31 22 -5 0 -4 6 3 14 11 12 14 12 22 -3 5 -9 12 -18 15 -21z m38 -17 c-4 -3 -10 -3 -14 0 -3 4 0 7 7 7 7 0 10 -3 7 -7z m3 -53 c12 -16 19 -30 16 -30 -2 0 -14 14 -26 30 -12 17 -19 30 -16 30 2 0 14 -13 26 -30z m1117 -6 c-3 -3 -12 -4 -19 -1 -8 3 -5 6 6 6 11 1 17 -2 13 -5z m-40 -10 c-3 -3 -12 -4 -19 -1 -8 3 -5 6 6 6 11 1 17 -2 13 -5z m-44 -11 c-7 -2 -21 -2 -30 0 -10 3 -4 5 12 5 17 0 24 -2 18 -5z m-60 -10 c-7 -2 -21 -2 -30 0 -10 3 -4 5 12 5 17 0 24 -2 18 -5z m-75 -10 c-10 -2 -26 -2 -35 0 -10 3 -2 5 17 5 19 0 27 -2 18 -5z m-341 -10 c-4 -3 -10 -3 -14 0 -3 4 0 7 7 7 7 0 10 -3 7 -7z"/> <path d="M1793 2943 c4 -3 10 -3 14 0 3 4 0 7 -7 7 -7 0 -10 -3 -7 -7z"/> <path d="M1623 2893 c4 -3 10 -3 14 0 3 4 0 7 -7 7 -7 0 -10 -3 -7 -7z"/> <path d="M1593 2883 c4 -3 10 -3 14 0 3 4 0 7 -7 7 -7 0 -10 -3 -7 -7z"/> <path d="M1840 2840 c20 -13 33 -13 25 0 -3 6 -14 10 -23 10 -15 0 -15 -2 -2 -10z"/> <path d="M1903 2823 c4 -3 10 -3 14 0 3 4 0 7 -7 7 -7 0 -10 -3 -7 -7z"/> <path d="M1500 2775 c-7 -9 -8 -15 -2 -15 5 0 12 7 16 15 3 8 4 15 2 15 -2 0 -9 -7 -16 -15z"/> <path d="M1495 2730 c-3 -5 1 -10 10 -10 9 0 13 5 10 10 -3 6 -8 10 -10 10 -2 0 -7 -4 -10 -10z"/> <path d="M745 2660 c4 -6 11 -8 16 -5 14 9 11 15 -7 15 -8 0 -12 -5 -9 -10z"/> <path d="M1217 2586 c-4 -10 6 -17 34 -24 48 -12 61 1 16 19 -17 7 -35 14 -38 16 -4 2 -9 -3 -12 -11z"/> <path d="M750 2515 c7 -8 16 -12 21 -9 13 8 1 24 -18 24 -13 0 -13 -3 -3 -15z"/> <path d="M1450 2335 c0 -8 5 -15 10 -15 6 0 15 -12 20 -26 14 -35 34 -25 38 19 3 36 3 37 -32 37 -25 0 -36 -4 -36 -15z"/> <path d="M840 2150 c0 -7 3 -10 7 -7 3 4 3 10 0 14 -4 3 -7 0 -7 -7z"/> <path d="M848 2093 c5 -21 7 -23 10 -9 2 10 0 22 -6 28 -6 6 -7 0 -4 -19z"/> <path d="M1970 2030 c0 -7 3 -10 7 -7 3 4 3 10 0 14 -4 3 -7 0 -7 -7z"/> <path d="M1790 1833 c-8 -3 -26 -14 -39 -24 -21 -17 -22 -19 -5 -19 11 0 33 11 49 25 29 23 27 30 -5 18z"/> <path d="M1703 2993 c4 -3 10 -3 14 0 3 4 0 7 -7 7 -7 0 -10 -3 -7 -7z"/> <path d="M1065 2950 c-8 -13 5 -13 25 0 13 8 13 10 -2 10 -9 0 -20 -4 -23 -10z"/> <path d="M2250 2756 c0 -3 35 -29 78 -57 61 -42 71 -46 49 -22 -26 29 -127 91 -127 79z"/> <path d="M2135 859 c-10 -15 3 -25 16 -12 7 7 7 13 1 17 -6 3 -14 1 -17 -5z"/> <path d="M2013 331 c-23 -4 -40 -19 -66 -58 -20 -29 -34 -53 -31 -53 14 0 88 44 119 71 52 46 48 54 -22 40z"/> </g> </svg> 